<svg xmlns="http://www.w3.org/2000/svg"  viewBox="0 0 48 48" width="48px" height="48px"><path d="M 24 4 C 20.881855 4 17.921547 4.7169359 15.287109 5.9941406 A 1.50015 1.50015 0 1 0 16.595703 8.6933594 C 18.833266 7.6085641 21.340145 7 24 7 C 33.406292 7 41 14.593708 41 24 C 41 30.937123 36.855884 36.882432 30.919922 39.53125 A 1.5003141 1.5003141 0 0 0 32.142578 42.271484 C 39.132616 39.152303 44 32.132877 44 24 C 44 12.972292 35.027708 4 24 4 z M 9.0351562 11.644531 A 1.50015 1.50015 0 0 0 7.7890625 12.283203 C 5.4059215 15.575288 4 19.630854 4 24 C 4 35.027708 12.972292 44 24 44 C 24.840617 44 25.672245 43.94744 26.488281 43.845703 A 1.50015 1.50015 0 1 0 26.117188 40.869141 C 25.425224 40.955407 24.717383 41 24 41 C 14.593708 41 7 33.406292 7 24 C 7 20.273146 8.1938443 16.840931 10.220703 14.041016 A 1.50015 1.50015 0 0 0 9.0351562 11.644531 z M 13.816406 17.125 C 13.117406 17.125 13 17.467984 13 17.833984 C 13 18.494984 13.550734 22.067781 16.552734 26.175781 C 18.729734 29.154781 21.597719 30.873047 24.136719 30.873047 C 25.674719 30.873047 25.832031 30.483094 25.832031 29.871094 L 25.832031 27.146484 C 25.833031 26.412484 26.001234 26.291016 26.490234 26.291016 C 26.839234 26.291016 27.550781 26.519047 28.925781 28.123047 C 30.511781 29.973047 30.799984 30.873047 31.708984 30.873047 L 34.109375 30.873047 C 34.666375 30.873047 34.985047 30.6405 34.998047 30.1875 C 35.001047 30.0725 34.984266 29.942828 34.947266 29.798828 C 34.769266 29.270828 33.9545 27.978047 32.9375 26.748047 C 32.3735 26.067047 31.816547 25.393344 31.560547 25.027344 C 31.389547 24.788344 31.324031 24.618031 31.332031 24.457031 C 31.340031 24.287031 31.428547 24.127344 31.560547 23.902344 C 31.537547 23.902344 34.638406 19.546125 34.941406 18.078125 C 34.983406 17.940125 35.003047 17.811266 34.998047 17.697266 C 34.984047 17.365266 34.757703 17.125 34.220703 17.125 L 31.820312 17.125 C 31.214312 17.125 30.935484 17.492375 30.771484 17.859375 C 30.771484 17.859375 29.274781 20.93875 27.550781 22.96875 C 26.991781 23.55675 26.707297 23.541016 26.404297 23.541016 C 26.242297 23.541016 25.832031 23.344641 25.832031 22.806641 L 25.832031 18.054688 C 25.832031 17.418688 25.674109 17.125 25.162109 17.125 L 20.900391 17.125 C 20.527391 17.125 20.333984 17.417891 20.333984 17.712891 C 20.333984 18.323891 21.157953 18.470594 21.251953 20.183594 L 21.251953 23.505859 C 21.251953 24.312859 21.111594 24.457031 20.808594 24.457031 C 19.992594 24.457031 18.385547 21.707516 17.310547 18.103516 C 17.077547 17.394516 16.844281 17.125 16.238281 17.125 L 13.816406 17.125 z"/></svg>